<svg width="15" height="13" fill="none" xmlns="http://www.w3.org/2000/svg"><path d="M11.25 2.059h-.625v-.515a.473.473 0 0 0-.183-.364.699.699 0 0 0-.442-.15.699.699 0 0 0-.442.15.474.474 0 0 0-.183.364v.515h-3.75v-.515a.474.474 0 0 0-.183-.364A.699.699 0 0 0 5 1.03a.699.699 0 0 0-.442.15.474.474 0 0 0-.183.364v.515H3.75c-.497 0-.974.163-1.326.452-.351.29-.549.682-.549 1.092v6.176c0 .41.198.803.55 1.092.35.29.828.452 1.325.452h7.5c.497 0 .974-.162 1.326-.452.351-.29.549-.682.549-1.092V3.603c0-.41-.197-.802-.55-1.092a2.096 2.096 0 0 0-1.325-.452Zm-7.5 1.03h.625v.514c0 .136.066.267.183.364.117.096.276.15.442.15a.699.699 0 0 0 .442-.15.474.474 0 0 0 .183-.364v-.515h3.75v.515c0 .136.066.267.183.364.117.096.276.15.442.15a.699.699 0 0 0 .442-.15.473.473 0 0 0 .183-.364v-.515h.625c.166 0 .325.054.442.151a.473.473 0 0 1 .183.364v2.059h-8.75V3.603c0-.137.066-.267.183-.364a.699.699 0 0 1 .442-.15Zm7.5 7.205h-7.5a.699.699 0 0 1-.442-.15.474.474 0 0 1-.183-.365V6.691h8.75V9.78a.474.474 0 0 1-.183.364.699.699 0 0 1-.442.151Z" fill="#444" fill-opacity=".7"/><path d="M5 8.75c.345 0 .625-.23.625-.515 0-.284-.28-.514-.625-.514s-.625.23-.625.514c0 .285.28.515.625.515ZM10 7.72H7.5a.699.699 0 0 0-.442.151.474.474 0 0 0-.183.364c0 .137.066.268.183.364.117.097.276.151.442.151H10a.699.699 0 0 0 .442-.15.473.473 0 0 0 .183-.365.473.473 0 0 0-.183-.364.699.699 0 0 0-.442-.15Z" fill="#444" fill-opacity=".7"/></svg>