<svg width="11" height="13" fill="none" xmlns="http://www.w3.org/2000/svg"><path d="M5.5 5.635a1.7 1.7 0 0 0 1.019-.345c.301-.226.536-.546.675-.92s.175-.786.104-1.184a2.133 2.133 0 0 0-.502-1.049 1.783 1.783 0 0 0-.938-.56 1.655 1.655 0 0 0-1.06.116 1.894 1.894 0 0 0-.822.754 2.224 2.224 0 0 0-.31 1.139c0 .543.194 1.064.538 1.449.343.384.81.6 1.296.6ZM8.25 10.757a.435.435 0 0 0 .324-.15.545.545 0 0 0 .134-.362c0-.95-.338-1.863-.94-2.535-.601-.673-1.417-1.05-2.268-1.05-.85 0-1.667.377-2.269 1.05-.601.672-.94 1.584-.94 2.535 0 .136.049.266.135.362.086.096.202.15.324.15h5.5Z" fill="#444" fill-opacity=".7"/></svg>