<svg width="73" height="72" viewBox="0 0 73 72" fill="none" xmlns="http://www.w3.org/2000/svg">
<rect x="0.5" width="72" height="72" rx="36" fill="white"/>
<g clip-path="url(#clip0)">
<path d="M46.6818 36.1765H43.7727V40.5686H39.4091V43.4967H46.6818V36.1765ZM29.2273 31.7843H33.5909V28.8562H26.3182V36.1765H29.2273V31.7843ZM49.5909 23H23.4091C22.6376 23 21.8976 23.3085 21.3521 23.8576C20.8065 24.4067 20.5 25.1515 20.5 25.9281V46.4249C20.5 47.2014 20.8065 47.9462 21.3521 48.4953C21.8976 49.0445 22.6376 49.353 23.4091 49.353H49.5909C50.3624 49.353 51.1024 49.0445 51.6479 48.4953C52.1935 47.9462 52.5 47.2014 52.5 46.4249V25.9281C52.5 25.1515 52.1935 24.4067 51.6479 23.8576C51.1024 23.3085 50.3624 23 49.5909 23ZM49.5909 46.4249H23.4091V25.9281H49.5909V46.4249Z" fill="#23A6F0"/>
</g>
<defs>
<clipPath id="clip0">
<rect width="32" height="26.353" fill="white" transform="translate(20.5 23)"/>
</clipPath>
</defs>
</svg>
