<svg width="25" height="19" fill="none" xmlns="http://www.w3.org/2000/svg"><path d="M21.432 10.944v7.108a.891.891 0 0 1-.295.667.976.976 0 0 1-.698.281h-5.954v-5.687h-3.97V19H4.561a.976.976 0 0 1-.698-.281.891.891 0 0 1-.295-.667v-7.108c0-.01.003-.025.008-.045a.195.195 0 0 0 .008-.044l8.916-7.02 8.916 7.02c.01.02.016.05.016.089Zm3.458-1.022-.962 1.096a.535.535 0 0 1-.325.163h-.047a.491.491 0 0 1-.326-.104L12.5 2.532 1.77 11.077a.596.596 0 0 1-.373.104.535.535 0 0 1-.325-.163L.11 9.922a.466.466 0 0 1-.108-.348.424.424 0 0 1 .17-.318L11.322.385C11.652.128 12.045 0 12.5 0c.455 0 .848.128 1.178.385l3.784 3.021V.518a.45.45 0 0 1 .14-.34.495.495 0 0 1 .356-.134h2.978c.144 0 .263.045.356.134a.45.45 0 0 1 .14.34V6.56l3.396 2.696c.103.079.16.185.17.318a.466.466 0 0 1-.108.348Z" fill="#fff"/></svg>