<svg width="520" height="636" viewBox="0 0 520 636" fill="none" xmlns="http://www.w3.org/2000/svg">
<g filter="url(#filter0_d)">
<path fill-rule="evenodd" clip-rule="evenodd" d="M70 31C58.9543 31 50 39.9543 50 51V551C50 552.064 50.0831 553.108 50.2431 554.127C53.2794 552.88 56.4485 551.998 59.6426 551.474C76.0583 548.784 92.8513 553.268 108.701 557.951C109.234 558.109 109.769 558.267 110.303 558.425C125.656 562.969 141.525 567.666 157.57 566.221C171.51 565.005 184.608 559.284 197.574 553.62C214.356 546.289 230.917 539.055 248.8 541.809C259.149 543.393 268.306 548.251 277.408 553.08C279.756 554.326 282.101 555.57 284.462 556.755C295.971 562.535 309.557 567.118 322.104 563.631C330 561.444 336.25 556.403 342.509 551.354C348.514 546.511 354.528 541.66 362.011 539.318C373.42 535.718 385.494 538.566 397.577 541.416C409.575 544.246 421.582 547.078 432.957 543.603C443.712 540.314 451.543 531.944 457.864 523.375C459.051 521.808 460.216 520.216 461.382 518.623C464.142 514.852 466.909 511.072 470 507.574V51C470 39.9543 461.046 31 450 31H70Z" fill="white"/>
</g>
<defs>
<filter id="filter0_d" x="0" y="0" width="520" height="635.487" filterUnits="userSpaceOnUse" color-interpolation-filters="sRGB">
<feFlood flood-opacity="0" result="BackgroundImageFix"/>
<feColorMatrix in="SourceAlpha" type="matrix" values="0 0 0 0 0 0 0 0 0 0 0 0 0 0 0 0 0 0 127 0" result="hardAlpha"/>
<feOffset dy="19"/>
<feGaussianBlur stdDeviation="25"/>
<feColorMatrix type="matrix" values="0 0 0 0 0.101961 0 0 0 0 0.498039 0 0 0 0 0.447059 0 0 0 0.15 0"/>
<feBlend mode="normal" in2="BackgroundImageFix" result="effect1_dropShadow"/>
<feBlend mode="normal" in="SourceGraphic" in2="effect1_dropShadow" result="shape"/>
</filter>
</defs>
</svg>
