<svg
   xmlns:dc="http://purl.org/dc/elements/1.1/"
   xmlns:cc="http://creativecommons.org/ns#"
   xmlns:rdf="http://www.w3.org/1999/02/22-rdf-syntax-ns#"
   xmlns:svg="http://www.w3.org/2000/svg"
   xmlns="http://www.w3.org/2000/svg"
   viewBox="0 0 1122.52 793.70667"
   xml:space="preserve"
   width="140px" 
   id="svg2"
   version="1.1"><metadata
     id="metadata8"><rdf:RDF><cc:Work
         rdf:about=""><dc:format>image/svg+xml</dc:format><dc:type
           rdf:resource="http://purl.org/dc/dcmitype/StillImage" /></cc:Work></rdf:RDF></metadata><defs
     id="defs6"><clipPath
       id="clipPath20"
       clipPathUnits="userSpaceOnUse"><path
         id="path18"
         d="M 0,595.28 H 841.89 V 0 H 0 Z" /></clipPath></defs><g
     transform="matrix(1.3333333,0,0,-1.3333333,0,793.70667)"
     id="g10"><g
       id="g14"><g
         clip-path="url(#clipPath20)"
         id="g16"><g
           transform="translate(549.9138,248.9728)"
           id="g22"><path
             id="path24"
             style="fill:#ffffff;fill-opacity:1;fill-rule:nonzero;stroke:none"
             d="m 0,0 c 3.006,0 6.034,0.96 8.593,2.945 6.126,4.752 7.242,13.568 2.491,19.696 l -37.35,48.162 31.67,41.873 c 4.677,6.182 3.456,14.987 -2.728,19.664 -6.186,4.673 -14.988,3.457 -19.664,-2.728 L -61.629,70.587 -11.103,5.435 C -8.336,1.868 -4.19,0 0,0" /></g><g
           transform="translate(148.2306,369.2211)"
           id="g26"><path
             id="path28"
             style="fill:#ffffff;fill-opacity:1;fill-rule:nonzero;stroke:none"
             d="m 0,0 c 0,4.504 1.317,8.249 3.95,11.233 2.633,2.983 6.172,4.475 10.617,4.475 3.165,0 5.845,-0.724 8.037,-2.169 2.192,-1.446 4.749,-3.661 7.671,-6.643 l 56.304,-70.141 h 0.365 V 0.366 c 0,4.262 1.24,7.946 3.722,11.05 2.48,3.106 6.11,4.657 10.891,4.657 5.143,0 9.048,-1.461 11.712,-4.383 2.663,-2.922 3.995,-6.698 3.995,-11.324 v -103.063 c 0,-4.902 -1.385,-8.935 -4.155,-12.102 -2.77,-3.166 -6.5,-4.749 -11.187,-4.749 -3.379,0 -6.203,0.838 -8.471,2.511 -2.268,1.674 -4.559,4.019 -6.872,7.033 l -56.304,70.14 v -64.341 c 0,-4.84 -1.476,-8.608 -4.429,-11.301 -2.953,-2.694 -6.957,-4.042 -12.01,-4.042 -4.323,0.214 -7.71,1.796 -10.16,4.749 C 1.225,-111.845 0,-108.056 0,-103.428 Z" /></g><g
           transform="translate(295.249,330.4992)"
           id="g30"><path
             id="path32"
             style="fill:#ffffff;fill-opacity:1;fill-rule:nonzero;stroke:none"
             d="m 0,0 v 38.356 c 0,5.084 1.507,8.905 4.521,11.462 3.014,2.558 6.362,3.837 10.046,3.837 h 47.902 c 4.322,0 7.77,-1.25 10.342,-3.745 2.572,-2.497 3.859,-5.983 3.859,-10.458 0,-3.926 -1.142,-7.214 -3.425,-9.862 C 70.961,26.94 67.37,25.616 62.469,25.616 H 30.275 V 1.506 h 29.956 c 4.536,0 8.067,-1.363 10.593,-4.087 2.528,-2.724 3.791,-6.05 3.791,-9.978 0,-3.835 -1.302,-7.162 -3.904,-9.976 -2.603,-2.817 -6.097,-4.225 -10.48,-4.225 H 30.275 v -24.887 h 32.194 c 5.266,0 9.14,-1.301 11.621,-3.904 2.48,-2.602 3.721,-5.793 3.721,-9.566 0,-4.323 -1.249,-7.832 -3.745,-10.525 -2.496,-2.695 -6.363,-4.042 -11.597,-4.042 H 15.708 c -5.053,0 -8.935,1.461 -11.643,4.383 C 1.354,-72.377 0,-68.846 0,-64.706 Z" /></g><g
           transform="translate(610.4142,265.7931)"
           id="g34"><path
             id="path36"
             style="fill:#ffffff;fill-opacity:1;fill-rule:nonzero;stroke:none"
             d="m 0,0 v 90.322 h -16.621 c -5.023,0 -8.897,1.234 -11.621,3.7 -2.724,2.465 -4.088,5.844 -4.088,10.136 0,9.467 5.237,14.203 15.709,14.203 h 64.158 c 10.471,0 15.708,-4.736 15.708,-14.203 0,-4.292 -1.355,-7.671 -4.064,-10.136 -2.71,-2.466 -6.592,-3.7 -11.644,-3.7 H 30.504 V 0 c 0,-5.176 -1.378,-9.156 -4.132,-11.94 -2.755,-2.787 -6.431,-4.18 -11.028,-4.18 -4.475,0 -8.151,1.401 -11.028,4.201 C 1.439,-9.118 0,-5.145 0,0" /></g><g
           transform="translate(456.7362,249.3228)"
           id="g38"><path
             id="path40"
             style="fill:#ffda00;fill-opacity:1;fill-rule:nonzero;stroke:none"
             d="m 0,0 c -3.006,0 -6.034,0.96 -8.593,2.945 -6.126,4.752 -7.242,13.568 -2.491,19.696 l 37.35,48.162 -31.67,41.873 c -4.677,6.182 -3.456,14.987 2.728,19.664 6.186,4.673 14.988,3.457 19.664,-2.728 L 61.629,70.587 11.103,5.435 C 8.336,1.868 4.19,0 0,0" /></g><g
           transform="translate(401.1268,249.8939)"
           id="g42"><path
             id="path44"
             style="fill:#0043ff;fill-opacity:1;fill-rule:nonzero;stroke:none"
             d="m 0,0 c -3.006,0 -6.034,0.96 -8.593,2.945 -6.126,4.752 -7.242,13.568 -2.491,19.696 l 37.35,48.162 -31.67,41.873 c -4.677,6.182 -3.456,14.987 2.728,19.664 6.186,4.673 14.988,3.457 19.664,-2.728 L 61.629,70.587 11.103,5.435 C 8.336,1.868 4.19,0 0,0" /></g><g
           transform="translate(199.7148,198.1579)"
           id="g46"><path
             id="path48"
             style="fill:#ffda00;fill-opacity:1;fill-rule:nonzero;stroke:none"
             d="m 0,0 1.978,11.437 h 3.74 L 7.743,3.693 h 0.024 l 4.646,7.744 h 3.884 L 14.271,0 H 11.58 l 1.477,8.363 H 12.985 L 7.934,0 H 6.242 L 4.146,8.387 H 4.098 L 2.645,0 Z" /></g><g
           transform="translate(225.9473,200.1589)"
           id="g50"><path
             id="path52"
             style="fill:#ffda00;fill-opacity:1;fill-rule:nonzero;stroke:none"
             d="M 0,0 C 1.175,0 2.132,0.437 2.871,1.311 3.61,2.185 3.979,3.249 3.979,4.504 3.979,5.361 3.713,6.068 3.181,6.624 2.648,7.18 1.937,7.458 1.048,7.458 -0.111,7.458 -1.06,7.018 -1.799,6.136 -2.538,5.254 -2.907,4.193 -2.907,2.955 -2.907,2.081 -2.649,1.37 -2.132,0.822 -1.617,0.274 -0.905,0 0,0 m -0.143,-2.311 c -1.605,0 -2.927,0.465 -3.967,1.394 -1.04,0.93 -1.561,2.124 -1.561,3.586 0,1.937 0.644,3.602 1.93,4.991 1.287,1.39 2.947,2.085 4.98,2.085 1.62,0 2.95,-0.461 3.991,-1.382 C 6.27,7.442 6.791,6.251 6.791,4.789 6.791,2.819 6.147,1.145 4.86,-0.238 3.574,-1.62 1.906,-2.311 -0.143,-2.311" /></g><g
           transform="translate(236.9541,198.0154)"
           id="g54"><path
             id="path56"
             style="fill:#ffda00;fill-opacity:1;fill-rule:nonzero;stroke:none"
             d="m 0,0 c -0.619,0 -1.151,0.056 -1.596,0.166 l 0.429,2.264 c 0.175,-0.064 0.421,-0.095 0.738,-0.095 0.731,0 1.354,0.381 1.87,1.144 0.517,0.761 0.942,2.104 1.275,4.026 l 0.715,4.074 h 9.078 L 10.484,0.143 H 7.696 L 9.316,9.34 H 5.766 L 5.313,6.838 C 4.869,4.407 4.237,2.66 3.419,1.596 2.601,0.531 1.461,0 0,0" /></g><g
           transform="translate(259.3984,200.1589)"
           id="g58"><path
             id="path60"
             style="fill:#ffda00;fill-opacity:1;fill-rule:nonzero;stroke:none"
             d="M 0,0 C 1.175,0 2.132,0.437 2.871,1.311 3.61,2.185 3.979,3.249 3.979,4.504 3.979,5.361 3.713,6.068 3.181,6.624 2.648,7.18 1.937,7.458 1.048,7.458 -0.111,7.458 -1.06,7.018 -1.799,6.136 -2.538,5.254 -2.907,4.193 -2.907,2.955 -2.907,2.081 -2.649,1.37 -2.132,0.822 -1.617,0.274 -0.905,0 0,0 m -0.143,-2.311 c -1.605,0 -2.927,0.465 -3.967,1.394 -1.04,0.93 -1.561,2.124 -1.561,3.586 0,1.937 0.644,3.602 1.93,4.991 1.287,1.39 2.947,2.085 4.98,2.085 1.62,0 2.95,-0.461 3.991,-1.382 C 6.27,7.442 6.791,6.251 6.791,4.789 6.791,2.819 6.147,1.145 4.86,-0.238 3.574,-1.62 1.906,-2.311 -0.143,-2.311" /></g><g
           transform="translate(273.6938,200.445)"
           id="g62"><path
             id="path64"
             style="fill:#ffda00;fill-opacity:1;fill-rule:nonzero;stroke:none"
             d="M 0,0 H 5.027 L 6.29,6.91 H 2.549 L 2.264,5.409 C 1.819,3.09 1.064,1.287 0,0 M -5.075,-5.527 -4.146,0 h 1.168 c 1.334,1.43 2.239,3.479 2.716,6.147 L 0.262,9.149 H 9.435 L 7.815,0 H 9.507 L 8.554,-5.527 H 6.147 l 0.572,3.24 h -8.863 l -0.548,-3.24 z" /></g><g
           transform="translate(293.0044,212.2986)"
           id="g66"><path
             id="path68"
             style="fill:#ffda00;fill-opacity:1;fill-rule:nonzero;stroke:none"
             d="m 0,0 c -0.326,-0.342 -0.727,-0.512 -1.203,-0.512 -0.477,0 -0.874,0.147 -1.192,0.441 -0.317,0.294 -0.476,0.694 -0.476,1.203 0,0.492 0.175,0.905 0.524,1.239 0.349,0.333 0.755,0.5 1.215,0.5 0.461,0 0.846,-0.151 1.156,-0.452 C 0.333,2.116 0.489,1.72 0.489,1.228 0.489,0.751 0.326,0.342 0,0 m -5.253,-14.141 2.001,11.437 h 2.812 l -2.026,-11.437 z" /></g><g
           transform="translate(294.3267,198.1579)"
           id="g70"><path
             id="path72"
             style="fill:#ffda00;fill-opacity:1;fill-rule:nonzero;stroke:none"
             d="M 0,0 6.171,6.171 2.502,11.437 H 5.718 L 9.125,6.313 h 0.072 l 0.882,5.124 h 2.787 L 11.985,6.313 h 0.071 l 4.884,5.124 h 3.622 L 14.82,5.861 18.942,0 H 15.654 L 11.889,5.552 H 11.818 L 10.865,0 H 8.077 L 9.03,5.552 H 8.959 L 3.646,0 Z" /></g><g
           transform="translate(317.2236,198.1579)"
           id="g74"><path
             id="path76"
             style="fill:#ffda00;fill-opacity:1;fill-rule:nonzero;stroke:none"
             d="M 0,0 2.001,11.437 H 4.813 L 4.026,7.076 h 4.813 l 0.763,4.361 H 12.39 L 10.364,0 H 7.577 L 8.434,4.837 H 3.669 L 2.788,0 Z" /></g><g
           transform="translate(333.7349,198.1579)"
           id="g78"><path
             id="path80"
             style="fill:#ffda00;fill-opacity:1;fill-rule:nonzero;stroke:none"
             d="m 0,0 1.978,11.437 h 2.763 l -1.31,-7.624 6.385,7.624 h 3.002 L 10.817,0 H 8.101 l 1.31,7.601 H 9.364 L 3.05,0 Z" /></g><g
           transform="translate(358.252,211.6198)"
           id="g82"><path
             id="path84"
             style="fill:#ffda00;fill-opacity:1;fill-rule:nonzero;stroke:none"
             d="m 0,0 c -1.017,0 -1.843,0.266 -2.478,0.798 -0.635,0.532 -0.969,1.29 -1.001,2.275 l 1.573,0.31 c 0.048,-0.54 0.242,-0.953 0.584,-1.238 0.341,-0.287 0.798,-0.429 1.369,-0.429 0.588,0 1.097,0.142 1.525,0.429 0.429,0.285 0.723,0.698 0.882,1.238 L 3.955,3.073 C 3.494,1.024 2.176,0 0,0 m -7.577,-13.462 1.978,11.437 h 2.764 L -4.146,-9.649 2.24,-2.025 H 5.242 L 3.24,-13.462 H 0.524 l 1.31,7.601 H 1.787 l -6.314,-7.601 z" /></g><g
           transform="translate(381.9111,200.1589)"
           id="g86"><path
             id="path88"
             style="fill:#ffda00;fill-opacity:1;fill-rule:nonzero;stroke:none"
             d="M 0,0 C 1.159,0 2.116,0.461 2.871,1.383 3.625,2.304 4.002,3.352 4.002,4.527 4.002,5.354 3.749,6.04 3.24,6.588 2.731,7.137 2.025,7.41 1.12,7.41 -0.008,7.41 -0.953,6.966 -1.716,6.076 -2.478,5.187 -2.859,4.162 -2.859,3.003 -2.859,2.145 -2.605,1.43 -2.097,0.858 -1.589,0.286 -0.89,0 0,0 m -0.119,-2.311 c -1.859,0 -3.264,0.525 -4.217,1.573 -0.89,0.984 -1.335,2.35 -1.335,4.098 0,1.175 0.155,2.486 0.465,3.931 0.31,1.445 0.727,2.708 1.251,3.788 0.539,1.08 1.243,1.931 2.108,2.55 0.866,0.619 1.974,1.001 3.324,1.143 l 2.955,0.334 c 0.634,0.08 1.111,0.199 1.429,0.358 0.318,0.158 0.556,0.412 0.715,0.762 l 1.93,-0.595 C 8.172,14.74 7.731,14.085 7.184,13.665 6.635,13.244 5.909,12.978 5.003,12.866 L 1.858,12.485 C 0.492,12.326 -0.576,11.854 -1.346,11.067 -2.117,10.281 -2.685,8.951 -3.05,7.077 h 0.071 c 1.176,1.699 2.812,2.549 4.909,2.549 1.445,0 2.621,-0.457 3.526,-1.37 C 6.361,7.343 6.814,6.132 6.814,4.623 6.814,2.605 6.147,0.945 4.812,-0.357 3.479,-1.659 1.834,-2.311 -0.119,-2.311" /></g><g
           transform="translate(392.7041,198.0154)"
           id="g90"><path
             id="path92"
             style="fill:#ffda00;fill-opacity:1;fill-rule:nonzero;stroke:none"
             d="m 0,0 c -0.619,0 -1.151,0.056 -1.596,0.166 l 0.429,2.264 c 0.175,-0.064 0.421,-0.095 0.738,-0.095 0.731,0 1.354,0.381 1.87,1.144 0.517,0.761 0.942,2.104 1.275,4.026 l 0.715,4.074 h 9.078 L 10.484,0.143 H 7.696 L 9.316,9.34 H 5.766 L 5.313,6.838 C 4.869,4.407 4.237,2.66 3.419,1.596 2.601,0.531 1.461,0 0,0" /></g><g
           transform="translate(413.6714,199.9685)"
           id="g94"><path
             id="path96"
             style="fill:#ffda00;fill-opacity:1;fill-rule:nonzero;stroke:none"
             d="M 0,0 C 0.841,0 1.56,0.258 2.156,0.774 2.751,1.291 3.121,1.937 3.264,2.717 L 3.407,3.432 H 3.073 C -0.215,3.432 -1.859,2.764 -1.859,1.43 -1.859,0.477 -1.239,0 0,0 m -0.953,-2.049 c -0.969,0 -1.811,0.238 -2.526,0.715 -0.715,0.477 -1.072,1.247 -1.072,2.312 0,2.969 2.74,4.455 8.219,4.455 0.048,0.254 0.073,0.5 0.073,0.738 0,1.032 -0.707,1.549 -2.121,1.549 -1.144,0 -2.248,-0.381 -3.312,-1.144 l -1.072,1.883 c 1.366,0.984 2.962,1.477 4.789,1.477 0.794,0 1.505,-0.104 2.132,-0.31 C 4.785,9.419 5.325,9.05 5.778,8.519 6.23,7.985 6.457,7.307 6.457,6.48 6.457,6.179 6.424,5.821 6.361,5.409 L 5.527,0.763 C 5.336,-0.413 5.242,-1.271 5.242,-1.811 H 2.668 c 0,0.429 0.047,0.882 0.143,1.359 H 2.763 C 1.874,-1.517 0.634,-2.049 -0.953,-2.049" /></g><g
           transform="translate(424.5586,198.1579)"
           id="g98"><path
             id="path100"
             style="fill:#ffda00;fill-opacity:1;fill-rule:nonzero;stroke:none"
             d="M 0,0 2.002,11.437 H 9.411 L 9.03,9.197 H 4.408 L 2.788,0 Z" /></g><g
           transform="translate(442.5,200.1589)"
           id="g102"><path
             id="path104"
             style="fill:#ffda00;fill-opacity:1;fill-rule:nonzero;stroke:none"
             d="m 0,0 c 1.175,0 2.132,0.437 2.87,1.311 0.74,0.874 1.109,1.938 1.109,3.193 0,0.857 -0.267,1.564 -0.798,2.12 C 2.648,7.18 1.937,7.458 1.048,7.458 -0.111,7.458 -1.061,7.018 -1.799,6.136 -2.538,5.254 -2.907,4.193 -2.907,2.955 -2.907,2.081 -2.649,1.37 -2.133,0.822 -1.617,0.274 -0.905,0 0,0 m -0.144,-2.311 c -1.604,0 -2.926,0.465 -3.966,1.394 -1.04,0.93 -1.561,2.124 -1.561,3.586 0,1.937 0.644,3.602 1.93,4.991 1.287,1.39 2.946,2.085 4.979,2.085 1.62,0 2.95,-0.461 3.991,-1.382 C 6.271,7.442 6.79,6.251 6.79,4.789 6.79,2.819 6.147,1.145 4.86,-0.238 3.573,-1.62 1.906,-2.311 -0.144,-2.311" /></g><g
           transform="translate(456.7959,200.445)"
           id="g106"><path
             id="path108"
             style="fill:#ffda00;fill-opacity:1;fill-rule:nonzero;stroke:none"
             d="M 0,0 H 5.027 L 6.29,6.91 H 2.55 L 2.264,5.409 C 1.818,3.09 1.064,1.287 0,0 M -5.075,-5.527 -4.146,0 h 1.167 c 1.335,1.43 2.241,3.479 2.717,6.147 L 0.262,9.149 H 9.436 L 7.815,0 H 9.507 L 8.554,-5.527 H 6.147 l 0.572,3.24 h -8.864 l -0.547,-3.24 z" /></g><g
           transform="translate(476.1064,212.2986)"
           id="g110"><path
             id="path112"
             style="fill:#ffda00;fill-opacity:1;fill-rule:nonzero;stroke:none"
             d="m 0,0 c -0.325,-0.342 -0.727,-0.512 -1.203,-0.512 -0.477,0 -0.874,0.147 -1.192,0.441 -0.317,0.294 -0.476,0.694 -0.476,1.203 0,0.492 0.175,0.905 0.524,1.239 0.349,0.333 0.754,0.5 1.215,0.5 0.461,0 0.846,-0.151 1.156,-0.452 C 0.334,2.116 0.488,1.72 0.488,1.228 0.488,0.751 0.325,0.342 0,0 m -5.254,-14.141 2.002,11.437 h 2.812 l -2.026,-11.437 z" /></g><g
           transform="translate(487.1738,211.6198)"
           id="g114"><path
             id="path116"
             style="fill:#ffda00;fill-opacity:1;fill-rule:nonzero;stroke:none"
             d="m 0,0 c -1.017,0 -1.843,0.266 -2.478,0.798 -0.635,0.532 -0.969,1.29 -1.001,2.275 l 1.573,0.31 c 0.048,-0.54 0.242,-0.953 0.584,-1.238 0.341,-0.287 0.798,-0.429 1.37,-0.429 0.587,0 1.096,0.142 1.524,0.429 0.429,0.285 0.723,0.698 0.882,1.238 L 3.955,3.073 C 3.494,1.024 2.176,0 0,0 M -7.577,-13.462 -5.6,-2.025 h 2.765 l -1.311,-7.624 6.385,7.624 H 5.241 L 3.24,-13.462 H 0.524 l 1.311,7.601 H 1.787 l -6.314,-7.601 z" /></g><g
           transform="translate(496.5371,198.1579)"
           id="g118"><path
             id="path120"
             style="fill:#ffda00;fill-opacity:1;fill-rule:nonzero;stroke:none"
             d="M 0,0 2.002,11.437 H 4.813 L 4.027,7.076 H 8.84 l 0.763,4.361 H 12.39 L 10.364,0 H 7.577 L 8.435,4.837 H 3.67 L 2.788,0 Z" /></g><g
           transform="translate(513.0479,198.1579)"
           id="g122"><path
             id="path124"
             style="fill:#ffda00;fill-opacity:1;fill-rule:nonzero;stroke:none"
             d="m 0,0 1.978,11.437 h 2.764 l -1.31,-7.624 6.384,7.624 h 3.002 L 10.817,0 H 8.102 l 1.31,7.601 H 9.364 L 3.05,0 Z" /></g><g
           transform="translate(537.5654,211.6198)"
           id="g126"><path
             id="path128"
             style="fill:#ffda00;fill-opacity:1;fill-rule:nonzero;stroke:none"
             d="m 0,0 c -1.017,0 -1.843,0.266 -2.478,0.798 -0.635,0.532 -0.969,1.29 -1.001,2.275 l 1.573,0.31 c 0.048,-0.54 0.242,-0.953 0.584,-1.238 0.341,-0.287 0.798,-0.429 1.37,-0.429 0.587,0 1.096,0.142 1.524,0.429 0.429,0.285 0.723,0.698 0.882,1.238 L 3.955,3.073 C 3.494,1.024 2.176,0 0,0 M -7.577,-13.462 -5.6,-2.025 h 2.765 l -1.311,-7.624 6.385,7.624 H 5.241 L 3.24,-13.462 H 0.524 l 1.311,7.601 H 1.787 l -6.314,-7.601 z" /></g><g
           transform="translate(564.2979,200.0876)"
           id="g130"><path
             id="path132"
             style="fill:#ffda00;fill-opacity:1;fill-rule:nonzero;stroke:none"
             d="m 0,0 c 1.397,0.079 2.506,0.48 3.324,1.203 0.818,0.723 1.227,1.712 1.227,2.967 0,1.906 -1.088,2.986 -3.264,3.24 z m -2.787,0.048 1.31,7.386 C -2.891,7.354 -4.007,6.961 -4.824,6.255 -5.643,5.548 -6.052,4.566 -6.052,3.313 c 0,-1.955 1.088,-3.042 3.265,-3.265 m -1.359,-7.696 0.929,5.361 c -1.81,0.207 -3.208,0.782 -4.193,1.727 -0.985,0.945 -1.477,2.188 -1.477,3.729 0,2.018 0.723,3.609 2.168,4.777 1.446,1.167 3.327,1.791 5.647,1.87 L 0,16.083 H 2.812 L 1.691,9.745 C 3.534,9.555 4.944,8.99 5.921,8.054 6.897,7.116 7.387,5.869 7.387,4.312 7.387,2.279 6.667,0.68 5.23,-0.488 3.792,-1.655 1.906,-2.279 -0.429,-2.358 l -0.905,-5.29 z" /></g><g
           transform="translate(581.6426,200.1589)"
           id="g134"><path
             id="path136"
             style="fill:#ffda00;fill-opacity:1;fill-rule:nonzero;stroke:none"
             d="M 0,0 C 1.176,0 2.133,0.437 2.871,1.311 3.61,2.185 3.979,3.249 3.979,4.504 3.979,5.361 3.713,6.068 3.182,6.624 2.648,7.18 1.938,7.458 1.049,7.458 -0.111,7.458 -1.06,7.018 -1.799,6.136 -2.537,5.254 -2.906,4.193 -2.906,2.955 -2.906,2.081 -2.648,1.37 -2.132,0.822 -1.616,0.274 -0.905,0 0,0 m -0.143,-2.311 c -1.604,0 -2.926,0.465 -3.966,1.394 -1.041,0.93 -1.561,2.124 -1.561,3.586 0,1.937 0.643,3.602 1.93,4.991 1.286,1.39 2.946,2.085 4.979,2.085 1.62,0 2.95,-0.461 3.991,-1.382 C 6.271,7.442 6.791,6.251 6.791,4.789 6.791,2.819 6.147,1.145 4.861,-0.238 3.574,-1.62 1.906,-2.311 -0.143,-2.311" /></g><g
           transform="translate(592.6025,198.1579)"
           id="g138"><path
             id="path140"
             style="fill:#ffda00;fill-opacity:1;fill-rule:nonzero;stroke:none"
             d="M 0,0 2.002,11.437 H 4.813 L 4.027,7.076 H 8.84 l 0.763,4.361 H 12.39 L 10.364,0 H 7.577 L 8.435,4.837 H 3.67 L 2.788,0 Z" /></g><g
           transform="translate(612.4492,200.445)"
           id="g142"><path
             id="path144"
             style="fill:#ffda00;fill-opacity:1;fill-rule:nonzero;stroke:none"
             d="M 0,0 H 5.027 L 6.29,6.91 H 2.55 L 2.264,5.409 C 1.818,3.09 1.064,1.287 0,0 M -5.075,-5.527 -4.146,0 h 1.167 c 1.335,1.43 2.241,3.479 2.717,6.147 L 0.262,9.149 H 9.436 L 7.815,0 H 9.507 L 8.554,-5.527 H 6.147 l 0.572,3.24 h -8.864 l -0.547,-3.24 z" /></g><g
           transform="translate(536.4574,408.74)"
           id="g146"><path
             id="path148"
             style="fill:#ffda00;fill-opacity:1;fill-rule:nonzero;stroke:none"
             d="M 0,0 C 0,-3.84 -2.13,-8.07 -4.61,-11.47 -12.26,-21.96 -33,-49.56 -33,-49.56 c 0,0 -20.74,27.6 -28.39,38.09 -2.48,3.4 -4.61,7.63 -4.61,11.47 0,8.7 7.04,15.75 15.74,15.75 4.29,0 8.26,-1.67 11.2,-4.41 2.94,-2.74 4.84,-6.56 4.97,-10.84 0.13,-4.35 -1.48,-8.47 -4.52,-11.56 -1.67,-1.7 -4.4,-1.98 -6.29,-0.54 -2.29,1.74 -2.51,4.98 -0.65,7 0.98,1.08 1.76,2.36 1.93,3.81 0.46,3.8 -2.51,7.05 -6.22,7.05 h -0.41 c -3.46,0 -6.27,-2.81 -6.27,-6.27 v -0.31 c 0,-1.68 0.9,-3.05 1.84,-4.44 5.94,-8.77 20.57,-29.81 21.68,-31.43 1.11,1.62 15.74,22.66 21.68,31.43 0.94,1.39 1.84,2.76 1.84,4.44 v 0.31 c 0,3.46 -2.81,6.27 -6.27,6.27 h -0.41 c -3.71,0 -6.68,-3.25 -6.22,-7.05 0.17,-1.45 0.95,-2.73 1.93,-3.81 1.86,-2.02 1.64,-5.26 -0.65,-7 -1.89,-1.44 -4.62,-1.16 -6.29,0.54 -3.04,3.09 -4.65,7.21 -4.52,11.56 0.13,4.28 2.03,8.1 4.97,10.84 2.94,2.74 6.91,4.41 11.2,4.41 C -7.04,15.75 0,8.7 0,0" /></g><g
           transform="translate(492.789,434.841)"
           id="g150"><path
             id="path152"
             style="fill:#ffda00;fill-opacity:1;fill-rule:nonzero;stroke:none"
             d="m 0,0 c 0,-3.751 -3.041,-6.793 -6.793,-6.793 -3.751,0 -6.792,3.042 -6.792,6.793 0,3.751 3.041,6.793 6.792,6.793 C -3.041,6.793 0,3.751 0,0" /></g><g
           transform="translate(527.5413,434.841)"
           id="g154"><path
             id="path156"
             style="fill:#ffda00;fill-opacity:1;fill-rule:nonzero;stroke:none"
             d="m 0,0 c 0,-3.751 -3.041,-6.793 -6.793,-6.793 -3.751,0 -6.792,3.042 -6.792,6.793 0,3.751 3.041,6.793 6.792,6.793 C -3.041,6.793 0,3.751 0,0" /></g></g></g></g></svg>