<svg width="62" height="66" viewBox="0 0 62 66" fill="none" xmlns="http://www.w3.org/2000/svg">
<g filter="url(#filter0_d)">
<g filter="url(#filter1_d)">
<path d="M41.0391 31.293L23.043 20.2949C22.7398 20.1096 22.3928 20.0083 22.0376 20.0016C21.6823 19.9949 21.3317 20.0829 21.0218 20.2567C20.7119 20.4304 20.4538 20.6836 20.2742 20.9902C20.0947 21.2968 20 21.6457 20 22.001V43.999C20.0003 44.3542 20.0951 44.7029 20.2748 45.0093C20.4544 45.3157 20.7124 45.5688 21.0223 45.7425C21.3321 45.9162 21.6826 46.0043 22.0377 45.9977C22.3928 45.9911 22.7398 45.8901 23.043 45.7051L41.0391 34.707C41.3314 34.5283 41.5729 34.2774 41.7405 33.9785C41.9081 33.6796 41.9961 33.3427 41.9961 33C41.9961 32.6573 41.9081 32.3204 41.7405 32.0215C41.5729 31.7226 41.3314 31.4717 41.0391 31.293Z" fill="white"/>
</g>
</g>
<defs>
<filter id="filter0_d" x="-8" y="-3" width="72" height="72" filterUnits="userSpaceOnUse" color-interpolation-filters="sRGB">
<feFlood flood-opacity="0" result="BackgroundImageFix"/>
<feColorMatrix in="SourceAlpha" type="matrix" values="0 0 0 0 0 0 0 0 0 0 0 0 0 0 0 0 0 0 127 0" result="hardAlpha"/>
<feOffset/>
<feGaussianBlur stdDeviation="10"/>
<feColorMatrix type="matrix" values="0 0 0 0 1 0 0 0 0 1 0 0 0 0 1 0 0 0 0.3 0"/>
<feBlend mode="normal" in2="BackgroundImageFix" result="effect1_dropShadow"/>
<feBlend mode="normal" in="SourceGraphic" in2="effect1_dropShadow" result="shape"/>
</filter>
<filter id="filter1_d" x="18" y="19.0012" width="25.9961" height="29.9968" filterUnits="userSpaceOnUse" color-interpolation-filters="sRGB">
<feFlood flood-opacity="0" result="BackgroundImageFix"/>
<feColorMatrix in="SourceAlpha" type="matrix" values="0 0 0 0 0 0 0 0 0 0 0 0 0 0 0 0 0 0 127 0" result="hardAlpha"/>
<feOffset dy="1"/>
<feGaussianBlur stdDeviation="1"/>
<feColorMatrix type="matrix" values="0 0 0 0 0 0 0 0 0 0 0 0 0 0 0 0 0 0 0.25 0"/>
<feBlend mode="normal" in2="BackgroundImageFix" result="effect1_dropShadow"/>
<feBlend mode="normal" in="SourceGraphic" in2="effect1_dropShadow" result="shape"/>
</filter>
</defs>
</svg>
