<svg width="71" height="80" viewBox="0 0 71 80" fill="none" xmlns="http://www.w3.org/2000/svg">
<path d="M35.2268 80L6.41956 72.0029L0 0H70.5399L64.1136 71.9916L35.2268 80Z" fill="#264DE4"/>
<path d="M58.6119 67.4075L64.1036 5.88734H35.27V73.8788L58.6119 67.4075Z" fill="#2965F1"/>
<path d="M14.7167 32.5922L15.5082 41.4229H35.27V32.5922H14.7167Z" fill="#EBEBEB"/>
<path d="M13.1263 14.7183L13.9291 23.5492H35.27V14.7183H13.1263Z" fill="#EBEBEB"/>
<path d="M35.2699 55.5269L35.2312 55.5372L25.3962 52.8815L24.7675 45.8385H15.9027L17.1399 59.7042L35.2293 64.726L35.2699 64.7147V55.5269Z" fill="#EBEBEB"/>
<path d="M55.7667 32.5922L57.3609 14.7183H35.2395V23.5492H47.6831L46.8795 32.5922H35.2395V41.4229H46.1137L45.0887 52.8759L35.2395 55.5343V64.7217L53.3432 59.7042L53.476 58.2123L55.5512 34.9635L55.7667 32.5922Z" fill="white"/>
</svg>
