<svg width="37" height="80" viewBox="0 0 37 80" fill="none" xmlns="http://www.w3.org/2000/svg">
<path d="M27.8841 77.5394L28.6512 64.7578L30.7692 61.1423C30.7692 61.1423 25.9485 63.1143 17.878 63.1143C9.80735 63.1143 5.05978 61.1787 5.05978 61.1787L7.43349 65.1228L8.27321 77.5394C8.27321 78.8706 12.6632 79.9496 18.0787 79.9496C23.494 79.9496 27.8841 78.8706 27.8841 77.5394Z" fill="#D34A47"/>
<path d="M25.4645 17.8511L27.0745 11.4871L35.9905 2.10535L33.6406 0.10379L24.2011 10.0977L22.3317 17.701C20.9773 17.6552 19.5637 17.6307 18.1094 17.6307C8.16793 17.6307 0.108704 18.7637 0.108704 20.161C0.108704 21.5585 8.16793 22.6914 18.1094 22.6914C28.0508 22.6914 36.1098 21.5585 36.1098 20.161C36.1098 19.1321 31.739 18.2464 25.4645 17.8511Z" fill="#D34A47"/>
<path d="M24.5279 21.415C24.5279 21.415 24.1792 21.4932 23.1535 21.4976C22.1275 21.5018 21.399 21.4909 21.1088 21.2266C21.0308 21.1557 20.9881 21.0147 20.9886 20.9193C20.9894 20.7377 21.1183 20.6307 21.2826 20.5637L21.4379 20.8074C21.3703 20.8307 21.3317 20.8583 21.3316 20.8877C21.331 21.0256 22.3806 21.12 23.1835 21.1099C23.9864 21.1 24.9566 21.0338 24.9575 20.8978C24.9575 20.8567 24.8841 20.818 24.7565 20.7875L24.9111 20.5455C25.1192 20.6101 25.3008 20.7349 25.3004 20.9508C25.2984 21.3181 24.8311 21.3739 24.5279 21.415Z" fill="white"/>
<path d="M35.973 2.12386C36.1972 1.86492 35.857 1.20259 35.2131 0.644711C34.569 0.0871142 33.8652 -0.155147 33.6406 0.103793C33.4163 0.362733 33.7566 1.02506 34.4007 1.58266C35.0445 2.1404 35.7487 2.38294 35.973 2.12386Z" fill="#D34A47"/>
<path d="M27.4553 46.319C27.244 44.286 31.9022 41.3415 30.7067 41.2472C28.1332 41.3944 26.8523 44.2632 25.5575 47.2679C25.083 48.3691 23.4594 53.0648 22.3945 52.4867C21.3299 51.9089 23.7747 48.0475 24.4599 45.7544C23.6693 46.3342 20.7696 48.587 20.0223 46.4772C18.8209 47.4976 16.2537 48.0504 16.5433 45.3701C15.9042 46.5022 14.4697 48.0829 12.7479 47.426C10.4867 46.5637 14.0581 39.3607 14.9462 39.7241C15.8344 40.0874 14.7669 41.7282 14.4874 42.3654C13.8725 43.7677 13.1623 45.5305 13.6368 45.8913C14.4496 46.5096 16.6616 43.5526 16.7108 43.4875C17.1245 42.941 18.3032 39.3651 19.2532 39.7757C20.2031 40.1863 16.8837 44.9076 18.1248 45.8446C18.3751 46.0337 19.3993 45.728 20.0223 45.0539C20.4255 44.6179 20.2868 43.6521 21.6305 40.4475C22.9743 37.2432 24.1719 33.2525 25.0934 33.5565C26.015 33.8604 25.2554 35.9086 24.9248 36.6721C23.3734 40.2557 20.6908 46.1762 21.9559 45.728C23.2211 45.2799 23.8799 45.2536 25.1187 43.8039C26.3576 42.3541 26.3005 39.9661 27.1262 40.0169C27.9522 40.0677 27.8136 40.8334 27.6133 41.4164C28.426 40.4864 31.4657 38.5277 32.1996 40.4676C33.0688 42.7643 27.8506 46.0817 29.1517 45.9126C30.4202 45.7476 32.4753 44.446 33.3528 43.2625L35.7681 21.5486C35.7681 21.5486 33.3377 23.5599 17.8756 23.5599C2.41344 23.5599 0.234497 21.5904 0.234497 21.5904L2.29075 41.4101C3.3822 38.308 5.974 32.0335 10.0594 32.2441C11.9177 32.34 14.3986 35.9183 12.2735 36.0396C11.374 36.0908 11.2827 34.2535 10.2175 33.9836C9.44892 33.7889 8.37881 34.4138 7.68722 35.0908C6.308 36.4406 3.34164 41.7663 3.73358 44.4214C4.23294 47.8064 8.40467 43.2451 9.11054 41.8909C9.60764 40.937 9.94347 38.1107 11.0307 38.4073C12.118 38.7038 10.9358 41.6205 10.1477 44.1993C9.26234 47.095 8.7969 50.1496 7.68722 49.7982C6.5774 49.4471 8.38517 45.7089 8.31973 45.0539C7.27662 46.0163 5.35492 48.4528 2.89641 47.2468L4.17344 59.5547C4.17344 59.5547 7.5675 62.2364 17.7918 62.2364C28.0161 62.2364 31.5358 59.5965 31.5358 59.5965L33.1216 45.3411C31.8242 46.6044 27.7182 48.8478 27.4553 46.319Z" fill="#D34A47"/>
</svg>
