<svg width="73" height="80" viewBox="0 0 73 80" fill="none" xmlns="http://www.w3.org/2000/svg">
<path d="M72.5526 0L65.9429 71.9916L36.2319 80L6.60273 72.0029L0 0H72.5526Z" fill="#E44D26"/>
<path d="M36.2763 73.8788L60.2842 67.4075L65.9327 5.88731H36.2763V73.8788Z" fill="#F16529"/>
<path d="M23.4273 23.5492H36.2763V14.7182H13.5009L13.7183 17.0874L15.9507 41.4229H36.2763V32.5921H24.2573L23.4273 23.5492Z" fill="#EBEBEB"/>
<path d="M25.4742 45.8385H16.3565L17.629 59.7042L36.2345 64.726L36.2763 64.7147V55.5269L36.2365 55.5372L26.1209 52.8815L25.4742 45.8385Z" fill="#EBEBEB"/>
<path d="M36.2449 41.4229H47.4294L46.3751 52.8759L36.2449 55.5342V64.7216L54.8652 59.7042L55.0018 58.2122L57.1362 34.9635L57.3578 32.5921H36.2449V41.4229Z" fill="white"/>
<path d="M36.2449 23.5276V23.5492H58.1843L58.3665 21.5643L58.7803 17.0874L58.9976 14.7182H36.2449V23.5276Z" fill="white"/>
</svg>
