<svg width="107" height="80" viewBox="0 0 107 80" fill="none" xmlns="http://www.w3.org/2000/svg">
<path d="M91.5947 45.8582C87.8837 45.8776 84.6584 46.7714 81.9577 48.0926C80.9668 46.1302 79.976 44.3816 79.8011 43.0992C79.6068 41.6032 79.3736 40.69 79.6068 38.9025C79.84 37.115 80.8891 34.5698 80.8697 34.3755C80.8503 34.1812 80.6366 33.268 78.4993 33.2486C76.3621 33.2292 74.5163 33.6566 74.3026 34.2201C74.0889 34.7835 73.6809 36.0658 73.4089 37.387C73.0397 39.33 69.1344 46.2662 66.9001 49.8995C66.1812 48.4811 65.5594 47.2377 65.4234 46.2468C65.2291 44.7507 64.996 43.8375 65.2291 42.0501C65.4623 40.2626 66.5115 37.7173 66.492 37.523C66.4726 37.3287 66.2589 36.4156 64.1217 36.3961C61.9845 36.3767 60.1387 36.8042 59.925 37.3676C59.7112 37.931 59.4781 39.2522 59.0312 40.5346C58.5843 41.8169 53.3967 53.3967 52.0367 56.3888C51.3372 57.9238 50.7349 59.1478 50.3075 59.9833C50.3075 59.9833 50.288 60.0415 50.2297 60.1387C49.8606 60.8576 49.6469 61.2462 49.6469 61.2462C49.6469 61.2462 49.6469 61.2462 49.6469 61.2656C49.3554 61.7902 49.0446 62.2759 48.8891 62.2759C48.7726 62.2759 48.5588 60.877 48.928 58.9729C49.7052 54.9511 51.5509 48.6949 51.5315 48.4811C51.5315 48.3646 51.8812 47.2765 50.3269 46.7131C48.8114 46.1496 48.2674 47.0822 48.1314 47.0822C47.9954 47.0822 47.8982 47.4125 47.8982 47.4125C47.8982 47.4125 49.5886 40.3791 44.673 40.3791C41.6032 40.3791 37.3676 43.7404 35.2692 46.7714C33.948 47.4902 31.1308 49.0252 28.1192 50.6766C26.9729 51.3178 25.7877 51.959 24.6803 52.5613C24.6025 52.4836 24.5248 52.3864 24.4471 52.3087C18.5018 45.9553 7.50479 41.4672 7.97109 32.9377C8.14596 29.829 9.21457 21.6688 29.0907 11.7598C45.4501 3.69668 58.4678 5.93105 60.7216 10.8855C63.9468 17.9578 53.7464 31.0919 36.843 32.996C30.3925 33.7149 27.0118 31.228 26.1569 30.2953C25.2631 29.3239 25.1271 29.2656 24.7968 29.4599C24.2528 29.7513 24.6025 30.6256 24.7968 31.1308C25.302 32.452 27.3809 34.7835 30.8976 35.9298C34.0063 36.9402 41.5643 37.5036 50.7155 33.9675C60.9547 30.0039 68.9596 18.9875 66.6086 9.75862C64.2577 0.39371 48.7143 -2.69554 34.0063 2.53093C25.2631 5.63961 15.7817 10.5358 8.96199 16.9086C0.859981 24.486 -0.42235 31.0725 0.102241 33.8315C1.98688 43.6238 15.4902 49.9966 20.8916 54.7179C20.6195 54.8734 20.367 55.0094 20.1532 55.1259C17.4526 56.4666 7.15506 61.8485 4.5904 67.5412C1.67601 73.9918 5.0567 78.6159 7.29107 79.2377C14.2273 81.1612 21.3579 77.7028 25.1854 71.9905C29.013 66.2783 28.5467 58.8564 26.7786 55.4562C26.7592 55.4174 26.7398 55.3785 26.7009 55.3397C27.4004 54.9317 28.1192 54.5042 28.8187 54.0962C30.1982 53.2802 31.5582 52.5224 32.724 51.9007C32.0634 53.7076 31.5777 55.8643 31.3445 58.9729C31.0531 62.6256 32.5491 67.3664 34.5115 69.2316C35.3858 70.0476 36.4155 70.067 37.0761 70.067C39.3688 70.067 40.3985 68.163 41.5449 65.9092C42.9438 63.1502 44.2067 59.9444 44.2067 59.9444C44.2067 59.9444 42.6329 68.6099 46.9073 68.6099C48.4617 68.6099 50.0355 66.5892 50.7349 65.5595V65.5789C50.7349 65.5789 50.7738 65.5206 50.8515 65.3846C51.0069 65.132 51.1041 64.9766 51.1041 64.9766V64.9377C51.7258 63.8497 53.1247 61.3822 55.2036 57.2826C57.8849 51.9978 60.469 45.3919 60.469 45.3919C60.469 45.3919 60.7021 47.0045 61.4987 49.6858C61.965 51.2595 62.9365 52.9887 63.7137 54.6596C63.0919 55.534 62.7033 56.0197 62.7033 56.0197C62.7033 56.0197 62.7033 56.0197 62.7228 56.0391C62.2176 56.6997 61.6736 57.4186 61.0713 58.1181C58.9535 60.6439 56.4277 63.5388 56.078 64.3743C55.6699 65.3652 55.7671 66.0841 56.5443 66.6669C57.1077 67.0944 58.118 67.1527 59.1478 67.0944C61.0518 66.9584 62.3925 66.4921 63.0531 66.2006C64.0828 65.8315 65.2874 65.268 66.4143 64.4326C68.4933 62.8977 69.7562 60.7021 69.6396 57.8072C69.5813 56.214 69.0567 54.6208 68.4155 53.1247C68.6098 52.8527 68.7847 52.5807 68.979 52.3087C72.2625 47.5097 74.8078 42.2443 74.8078 42.2443C74.8078 42.2443 75.0409 43.857 75.8375 46.5382C76.2261 47.8983 77.0227 49.3749 77.7222 50.8127C74.6329 53.319 72.7288 56.2334 72.0488 58.1375C70.8248 61.6736 71.7768 63.2668 73.5837 63.636C74.3998 63.8108 75.5655 63.4222 76.4204 63.0531C77.5084 62.7034 78.7908 62.1011 80.0148 61.2073C82.0938 59.6724 84.095 57.5352 83.9784 54.6402C83.9201 53.319 83.5704 52.0173 83.0846 50.7544C85.7076 49.6663 89.0883 49.064 93.4016 49.5692C102.65 50.6572 104.476 56.4277 104.127 58.8564C103.777 61.285 101.834 62.6062 101.193 63.0142C100.552 63.4222 100.338 63.5582 100.396 63.8497C100.474 64.2771 100.785 64.2577 101.329 64.18C102.086 64.044 106.186 62.2176 106.361 57.7489C106.652 52.0367 101.212 45.7999 91.5947 45.8582ZM20.2504 69.9116C17.1806 73.2534 12.9061 74.5163 11.0603 73.4477C9.07856 72.3014 9.85573 67.3664 13.625 63.8303C15.9177 61.6736 18.8709 59.6724 20.8333 58.4484C21.2801 58.1763 21.9407 57.7878 22.7373 57.302C22.8733 57.2243 22.9511 57.1854 22.9511 57.1854C23.1065 57.0883 23.2619 56.9912 23.4174 56.894C24.7968 61.9456 23.4756 66.3949 20.2504 69.9116ZM42.594 54.7179C41.5254 57.3215 39.2911 63.9857 37.931 63.6165C36.7653 63.3057 36.0464 58.2541 37.6979 53.2607C38.5333 50.7544 40.3014 47.7623 41.3311 46.5965C43.0021 44.7313 44.8478 44.1096 45.2947 44.8673C45.8582 45.8582 43.2546 53.0859 42.594 54.7179ZM61.0324 63.5388C60.5855 63.772 60.1581 63.9274 59.9638 63.8108C59.8278 63.7331 60.1581 63.4222 60.1581 63.4222C60.1581 63.4222 62.4702 60.9353 63.3834 59.8084C63.908 59.1478 64.5297 58.3706 65.1903 57.4963V57.7489C65.1903 60.7216 62.3148 62.7228 61.0324 63.5388ZM75.2546 60.2941C74.9243 60.061 74.9826 59.2838 76.0901 56.8551C76.5175 55.9031 77.5279 54.3099 79.2571 52.775C79.4514 53.3967 79.5874 53.9991 79.5679 54.5625C79.5485 58.3123 76.8673 59.7113 75.2546 60.2941Z" fill="#CD6799"/>
</svg>
