<svg width="21" height="22" viewBox="0 0 21 22" fill="none" xmlns="http://www.w3.org/2000/svg">
<path d="M3.5 2.77148H17.5C17.9641 2.77148 18.4092 2.95586 18.7374 3.28405C19.0656 3.61224 19.25 4.05736 19.25 4.52148V9.77148C19.25 12.0921 18.3281 14.3177 16.6872 15.9587C15.0462 17.5996 12.8206 18.5215 10.5 18.5215C9.35093 18.5215 8.21312 18.2952 7.15152 17.8554C6.08992 17.4157 5.12533 16.7712 4.31282 15.9587C2.67187 14.3177 1.75 12.0921 1.75 9.77148V4.52148C1.75 4.05736 1.93437 3.61224 2.26256 3.28405C2.59075 2.95586 3.03587 2.77148 3.5 2.77148V2.77148Z" stroke="#8D5197" stroke-width="2" stroke-linecap="round" stroke-linejoin="round"/>
<path d="M7 8.89648L10.5 12.3965L14 8.89648" stroke="#8D5197" stroke-width="2" stroke-linecap="round" stroke-linejoin="round"/>
</svg>
